<?xml version="1.0" encoding="utf-8"?>
<!-- Generator: Adobe Illustrator 20.1.0, SVG Export Plug-In . SVG Version: 6.00 Build 0)  -->
<svg version="1.1" xmlns="http://www.w3.org/2000/svg" xmlns:xlink="http://www.w3.org/1999/xlink" x="0px" y="0px"
	 viewBox="0 0 101 58" enable-background="new 0 0 101 58" xml:space="preserve">
<g id="Boundingbox">
	<rect fill="none" width="101" height="58"/>
</g>
<g id="interseroh">
	<g>
		<g id="zero_waste_solution_1_">
			<path fill="#002652" d="M64.889,57.102c-0.538,0-1.04-0.292-1.298-0.748c-0.257-0.468-0.339-1.087-0.339-1.625
				c0-0.479,0.07-1.052,0.293-1.485c0.257-0.514,0.771-0.841,1.344-0.841c0.515,0,1.005,0.269,1.286,0.701
				c0.304,0.479,0.374,1.064,0.374,1.625c0,0.514-0.047,1.052-0.293,1.52C65.976,56.786,65.497,57.102,64.889,57.102z
				 M64.806,57.862c1.8,0,2.759-1.461,2.759-3.122c0-1.566-0.865-3.086-2.607-3.086c-1.788,0-2.723,1.426-2.723,3.074
				C62.235,56.295,63.03,57.862,64.806,57.862z"/>
			<path fill="#002652" d="M56.308,56.167c0.304,1.216,1.45,1.695,2.607,1.695s2.467-0.491,2.467-1.835
				c0-0.538-0.246-1.029-0.713-1.345c-0.362-0.245-0.807-0.327-1.239-0.408l-0.865-0.152c-0.526-0.082-1.064-0.222-1.064-0.865
				c0-0.655,0.725-0.865,1.263-0.865c0.678,0,1.285,0.28,1.52,0.935l0.841-0.175c-0.292-1.099-1.285-1.496-2.35-1.496
				c-1.087,0-2.22,0.514-2.22,1.742c0,1.052,0.829,1.473,1.742,1.648l0.97,0.176c0.515,0.094,1.157,0.269,1.157,0.9
				c0,0.759-0.807,0.982-1.437,0.982c-0.713,0-1.66-0.304-1.789-1.111L56.308,56.167z"/>
			<path fill="#002652" d="M48.228,54.168c0.035-0.936,0.678-1.812,1.672-1.812c1.052,0,1.601,0.83,1.59,1.812H48.228z
				 M51.536,55.945c-0.257,0.701-0.818,1.146-1.589,1.146c-0.62,0-1.239-0.339-1.52-0.9c-0.222-0.444-0.246-0.876-0.246-1.344h4.313
				c0.047-1.648-0.748-3.191-2.595-3.191c-1.777,0-2.747,1.485-2.747,3.121c0,1.66,0.923,3.086,2.724,3.086
				c1.134,0,2.174-0.654,2.525-1.742L51.536,55.945z"/>
			<path fill="#002652" d="M46.839,57.067l-0.701,0.059c-0.748,0-0.947-0.362-0.947-1.052v-3.589h1.321v-0.725h-1.321v-1.566
				l-0.912,0.093v1.473h-1.052v0.725h1.052v3.437c0,1.181,0.386,1.941,1.683,1.941l0.877-0.07V57.067z"/>
			<path fill="#002652" d="M37.707,56.167c0.304,1.216,1.45,1.695,2.607,1.695s2.467-0.491,2.467-1.835
				c0-0.538-0.246-1.029-0.713-1.345c-0.362-0.245-0.807-0.327-1.239-0.408l-0.865-0.152c-0.526-0.082-1.064-0.222-1.064-0.865
				c0-0.655,0.725-0.865,1.262-0.865c0.678,0,1.286,0.28,1.52,0.935l0.842-0.175c-0.292-1.099-1.286-1.496-2.35-1.496
				c-1.087,0-2.221,0.514-2.221,1.742c0,1.052,0.83,1.473,1.742,1.648l0.97,0.176c0.514,0.094,1.157,0.269,1.157,0.9
				c0,0.759-0.807,0.982-1.438,0.982c-0.713,0-1.66-0.304-1.788-1.111L37.707,56.167z"/>
			<path fill="#002652" d="M35.061,54.062c-0.736,0-1.613,0.035-2.279,0.351c-0.655,0.292-1.099,0.936-1.099,1.649
				c0,1.18,0.959,1.8,2.069,1.8c0.947,0,1.66-0.374,2.081-1.228l0.105,1.111h0.912c-0.117-0.386-0.128-0.818-0.128-1.251v-2.302
				c0-0.678,0-1.426-0.491-1.953c-0.444-0.514-1.181-0.584-1.823-0.584c-1.087,0-2.397,0.386-2.56,1.624l0.853,0.141
				c0.164-0.819,0.877-1.052,1.625-1.052c1.052,0,1.508,0.397,1.508,1.438v0.257H35.061z M35.832,55.138
				c0,1.052-0.76,2.011-1.882,2.011c-0.655,0-1.286-0.304-1.286-1.04c0-1.227,1.473-1.356,2.408-1.356h0.76V55.138z"/>
			<polygon fill="#002652" points="31.142,51.806 30.394,51.806 29.061,56.249 27.729,51.806 27.062,51.806 25.823,56.237 
				24.537,51.806 23.614,51.806 25.391,57.745 26.151,57.745 27.366,53.338 28.687,57.745 29.435,57.745 			"/>
			<path fill="#002652" d="M17.568,57.102c-0.538,0-1.04-0.292-1.297-0.748c-0.257-0.468-0.339-1.087-0.339-1.625
				c0-0.479,0.07-1.052,0.292-1.485c0.257-0.514,0.772-0.841,1.344-0.841c0.514,0,1.005,0.269,1.286,0.701
				c0.304,0.479,0.374,1.064,0.374,1.625c0,0.514-0.047,1.052-0.292,1.52C18.655,56.786,18.176,57.102,17.568,57.102z
				 M17.486,57.862c1.8,0,2.759-1.461,2.759-3.122c0-1.566-0.865-3.086-2.607-3.086c-1.789,0-2.724,1.426-2.724,3.074
				C14.914,56.295,15.709,57.862,17.486,57.862z"/>
			<path fill="#002652" d="M11.657,51.806v5.939h0.912v-2.993c0-0.467,0.047-0.841,0.292-1.274c0.339-0.597,0.83-0.936,1.531-0.936
				h0.187v-0.876l-0.339-0.024c-0.959,0-1.461,0.748-1.742,1.555h-0.023v-1.392H11.657z"/>
			<path fill="#002652" d="M6.186,54.168c0.035-0.936,0.678-1.812,1.672-1.812c1.052,0,1.601,0.83,1.59,1.812H6.186z M9.494,55.945
				c-0.257,0.701-0.818,1.146-1.59,1.146c-0.62,0-1.239-0.339-1.52-0.9c-0.222-0.444-0.246-0.876-0.246-1.344h4.314
				c0.047-1.648-0.748-3.191-2.595-3.191c-1.777,0-2.747,1.485-2.747,3.121c0,1.66,0.924,3.086,2.724,3.086
				c1.134,0,2.175-0.654,2.525-1.742L9.494,55.945z"/>
			<polygon fill="#002652" points="4.692,51.806 0.565,51.806 0.565,52.531 3.476,52.531 0.32,57.032 0.32,57.745 4.692,57.745 
				4.692,57.032 1.43,57.032 4.692,52.309 			"/>
			<path fill="#002652" d="M80.402,57.067l-0.701,0.059c-0.748,0-0.947-0.362-0.947-1.052v-3.589h1.321v-0.725h-1.321v-1.566
				l-0.912,0.093v1.473H76.79v0.725h1.052v3.437c0,1.181,0.386,1.941,1.684,1.941l0.876-0.07V57.067z"/>
			<path fill="#002652" d="M75.948,57.745v-5.939h-0.912v3.157c0,0.561-0.094,1.052-0.457,1.496
				c-0.315,0.386-0.736,0.608-1.227,0.608c-0.374,0-0.783-0.233-0.959-0.561c-0.175-0.304-0.199-0.748-0.199-1.087v-3.612h-0.912
				v3.612c0,0.608,0.07,1.286,0.468,1.777c0.374,0.455,0.934,0.666,1.52,0.666c0.818,0,1.531-0.561,1.823-1.298h0.024v1.181H75.948z
				"/>
			<polygon fill="#002652" points="69.749,49.726 69.293,49.726 68.837,49.726 68.837,57.745 69.749,57.745 			"/>
			<path fill="#002652" d="M95.749,56.167c0.304,1.216,1.449,1.695,2.606,1.695c1.157,0,2.467-0.491,2.467-1.835
				c0-0.538-0.246-1.029-0.713-1.345c-0.362-0.245-0.807-0.327-1.239-0.408l-0.865-0.152c-0.526-0.082-1.064-0.222-1.064-0.865
				c0-0.655,0.725-0.865,1.262-0.865c0.679,0,1.286,0.28,1.52,0.935l0.842-0.175c-0.292-1.099-1.285-1.496-2.35-1.496
				c-1.087,0-2.22,0.514-2.22,1.742c0,1.052,0.829,1.473,1.741,1.648l0.97,0.176c0.515,0.094,1.157,0.269,1.157,0.9
				c0,0.759-0.807,0.982-1.437,0.982c-0.713,0-1.66-0.304-1.789-1.111L95.749,56.167z"/>
			<path fill="#002652" d="M90.845,51.806h-0.865v5.939h0.912v-3.109c0-0.596,0.082-1.134,0.468-1.602
				c0.315-0.374,0.748-0.596,1.227-0.596c0.386,0,0.819,0.199,1.017,0.537c0.175,0.304,0.163,0.748,0.163,1.099v3.671h0.912V54.46
				c0-0.584,0.024-1.38-0.281-1.882c-0.374-0.619-0.97-0.923-1.684-0.923c-0.842,0-1.508,0.514-1.847,1.251h-0.024V51.806z"/>
			<path fill="#002652" d="M86.11,57.102c-0.537,0-1.04-0.292-1.298-0.748c-0.257-0.468-0.339-1.087-0.339-1.625
				c0-0.479,0.07-1.052,0.293-1.485c0.257-0.514,0.771-0.841,1.344-0.841c0.515,0,1.006,0.269,1.286,0.701
				c0.304,0.479,0.374,1.064,0.374,1.625c0,0.514-0.046,1.052-0.293,1.52C87.198,56.786,86.718,57.102,86.11,57.102z M86.029,57.862
				c1.8,0,2.759-1.461,2.759-3.122c0-1.566-0.865-3.086-2.607-3.086c-1.789,0-2.724,1.426-2.724,3.074
				C83.457,56.295,84.252,57.862,86.029,57.862z"/>
			<path fill="#002652" d="M82.227,51.806h-0.456h-0.456v5.939h0.912V51.806z M81.767,50.806c-0.351,0-0.637-0.285-0.637-0.637
				c0-0.352,0.286-0.637,0.637-0.637c0.352,0,0.638,0.286,0.638,0.637C82.405,50.521,82.119,50.806,81.767,50.806z"/>
		</g>
		<g id="interseroh_2_">
			<path fill="#002652" d="M100.565,36.992c0-1.099,0.067-2.244-0.628-3.14c-0.673-0.875-1.795-1.234-2.849-1.234
				c-1.234,0-2.535,0.652-2.962,1.795h-0.045V28.85h-3.297v15.388h3.297v-6.146c0-0.673,0-1.391,0.292-1.997
				c0.269-0.561,0.964-0.852,1.57-0.852c1.436,0,1.324,1.861,1.324,2.849v6.146h3.298V36.992z"/>
			<path fill="#002652" d="M83.427,34.794c0.763,0,1.301,0.292,1.57,1.032c0.314,0.853,0.359,1.929,0.359,2.827
				c0,1.368-0.09,3.611-1.952,3.611c-1.884,0-1.862-2.782-1.862-4.083S81.656,34.794,83.427,34.794z M83.405,32.618
				c-3.476,0-5.406,2.58-5.406,5.9c0,3.298,1.907,5.944,5.406,5.944c3.365,0,5.496-2.58,5.496-5.832
				C88.901,35.265,86.972,32.618,83.405,32.618z"/>
			<path fill="#002652" d="M70.979,32.842v11.396h3.297v-4.352c0-2.018,0.314-4.06,2.827-3.925v-3.297l-0.561-0.046
				c-1.436-0.112-2.109,1.145-2.445,2.356h-0.045v-2.131H70.979z"/>
			<path fill="#002652" d="M61.531,37.149c0.112-1.3,0.673-2.377,2.131-2.377c1.435,0,1.84,1.144,1.907,2.377H61.531z
				 M68.865,39.101c0.023-1.548-0.224-3.163-1.166-4.464c-0.942-1.301-2.579-2.019-4.172-2.019c-3.544,0-5.541,2.715-5.541,6.079
				c0,3.387,2.221,5.765,5.631,5.765c3.858,0,5.182-3.365,5.182-3.926l-3.051-0.224c0,1.054-1.009,1.795-2.019,1.795
				c-1.435,0-2.198-1.099-2.198-2.445l0.022-0.56H68.865z"/>
			<path fill="#002652" d="M56.126,35.602c-0.785-2.131-2.243-2.984-4.486-2.984c-2.423,0-4.867,1.01-4.867,3.814
				c0,1.436,0.897,2.602,2.243,3.073c0.718,0.247,2.602,0.583,3.387,0.673c0.606,0.067,1.279,0.202,1.279,0.964
				c0,0.853-1.368,1.077-1.996,1.077c-1.054,0-2.288-0.359-2.512-1.526l-2.849,0.404c0.606,2.558,2.827,3.365,5.204,3.365
				c1.256,0,2.512-0.224,3.544-0.943c0.965-0.694,1.526-1.749,1.526-2.938c0-5.137-6.842-2.714-6.842-4.845
				c0-0.83,1.032-1.009,1.705-1.009c1.077,0,1.929,0.449,2.221,1.526L56.126,35.602z"/>
			<path fill="#002652" d="M39.682,32.842v11.396h3.297v-4.352c0-2.018,0.314-4.06,2.826-3.925v-3.297l-0.561-0.046
				c-1.436-0.112-2.109,1.145-2.445,2.356h-0.045v-2.131H39.682z"/>
			<path fill="#002652" d="M30.233,37.149c0.112-1.3,0.673-2.377,2.131-2.377c1.436,0,1.839,1.144,1.906,2.377H30.233z
				 M37.569,39.101c0.022-1.548-0.224-3.163-1.167-4.464c-0.942-1.301-2.58-2.019-4.172-2.019c-3.544,0-5.541,2.715-5.541,6.079
				c0,3.387,2.221,5.765,5.63,5.765c3.858,0,5.182-3.365,5.182-3.926l-3.051-0.224c0,1.054-1.01,1.795-2.019,1.795
				c-1.435,0-2.198-1.099-2.198-2.445l0.023-0.56H37.569z"/>
			<path fill="#002652" d="M19.47,35.444v5.025c0,1.122,0,2.489,0.92,3.252c0.74,0.606,1.997,0.741,2.938,0.741
				c0.606,0,1.212-0.112,1.84-0.202l0.224-0.045v-2.49l-1.032,0.045c-1.593,0.067-1.593-0.471-1.593-1.795v-4.532h2.445V32.82
				h-2.445v-3.567l-2.871,0.224l-0.292,3.343h-1.996v2.624H19.47z"/>
			<path fill="#002652" d="M6.391,32.842v11.396h3.298v-6.124c0-0.718,0.045-1.368,0.381-2.019c0.269-0.516,0.808-0.852,1.391-0.852
				c1.66,0,1.504,1.705,1.504,2.871v6.124h3.297v-7.044c0-1.032,0-2.467-0.628-3.32c-0.673-0.919-1.727-1.256-2.804-1.256
				c-1.66,0-2.602,0.696-3.275,2.154H9.509v-1.929H6.391z"/>
			<path fill="#002652" d="M3.863,32.842H2.157H0.565v11.396h3.298V32.842z M2.157,30.433c-1.093,0-1.98-0.885-1.98-1.979
				s0.886-1.98,1.98-1.98c1.094,0,1.98,0.886,1.98,1.98S3.251,30.433,2.157,30.433z"/>
		</g>
		<g id="Bildmarke_1_">
			<path fill="#002652" d="M44.111,11.385c0-4.105,2.826-6.66,6.323-6.66c1.484,0,2.844,0.512,3.923,1.366
				c-1.731-2.899-5.256-5.003-9.442-5.419c-0.439,0.044-0.871,0.113-1.292,0.21c-7.033,1.582-12.02,5.542-12.02,10.178
				c0,6.027,8.431,10.913,18.83,10.913c1.118,0,2.213-0.057,3.278-0.165C48.421,21.218,44.272,16.795,44.111,11.385z"/>
			<path fill="#A1A1A3" d="M56.742,10.724c0,4.105-2.827,6.66-6.324,6.66c-1.483,0-2.844-0.512-3.922-1.366
				c1.73,2.899,5.256,5.003,9.44,5.419c0.44-0.045,0.871-0.113,1.293-0.21c7.033-1.582,12.02-5.542,12.02-10.177
				c0-6.027-8.431-10.913-18.831-10.913c-1.118,0-2.212,0.057-3.278,0.165C52.432,0.892,56.58,5.316,56.742,10.724z"/>
		</g>
	</g>
</g>
</svg>
